<?xml version="1.0" standalone="no"?>
<!DOCTYPE svg PUBLIC "-//W3C//DTD SVG 20010904//EN"
 "http://www.w3.org/TR/2001/REC-SVG-20010904/DTD/svg10.dtd">
<svg version="1.0" xmlns="http://www.w3.org/2000/svg"
 width="500.000000pt" height="500.000000pt" viewBox="0 0 500.000000 500.000000"
 preserveAspectRatio="xMidYMid meet">

<g transform="translate(0.000000,500.000000) scale(0.100000,-0.100000)"
fill="#000000" stroke="none">
<path d="M2678 3241 c-88 -29 -140 -93 -146 -182 -6 -77 17 -136 68 -183 140
-126 364 -11 348 179 -9 102 -86 180 -188 189 -30 3 -67 2 -82 -3z m107 -32
c90 -25 145 -117 124 -210 -26 -116 -144 -170 -256 -120 -82 38 -118 153 -74
239 24 47 50 70 98 88 47 16 58 17 108 3z"/>
<path d="M2915 2850 c-19 -20 -18 -22 66 -106 89 -90 121 -103 127 -54 2 21
-13 41 -76 103 -44 42 -84 77 -89 77 -6 0 -18 -9 -28 -20z"/>
</g>
</svg>
