<svg width="500" height="500" version="1.1" xmlns="http://www.w3.org/2000/svg" desc="Created with imagetracer.js version 1.2.6" ><path fill="rgb(238,239,238)" stroke="rgb(238,239,238)" stroke-width="1" opacity="1" d="M 180.5 143 L 282.5 143 L 291.5 146 L 296 150.5 L 298 155.5 L 298 214.5 L 294.5 212 L 291 210.5 L 295 202.5 L 296 195.5 L 293 185.5 L 287.5 179 L 280.5 175 L 272.5 174 L 264.5 176 L 258 180 L 255.5 184 L 234.5 184 L 232 186.5 Q 231.5 190.5 234.5 191 L 252 191 L 252 200.5 Q 254 210 261 214.5 L 182.5 215 L 181 216.5 Q 180.3 220.3 182.5 221 L 281.5 221 L 283 219.5 L 282 216.5 L 287.5 214 Q 290.4 222.5 298 226.5 L 298 314.5 L 292.5 323 L 286.5 326 L 167.5 326 L 166 324.5 L 166 232 L 140 231.5 L 166 231 L 166 154.5 L 173.5 145 L 180.5 143 Z M 201 156 L 194 159 Q 189 162 188 169 L 191 179 L 187 181 Q 180 185 180 195 Q 186 203 199 205 Q 216 205 223 195 L 223 192 L 220 186 L 211 178 L 214 174 Q 215 165 212 162 Q 208 157 201 156 Z M 235 166 L 232 169 Q 232 172 235 173 L 252 173 L 254 172 L 255 170 L 254 167 L 252 166 L 235 166 Z M 184 235 Q 180 236 181 240 L 184 242 L 281 242 Q 284 241 283 238 L 281 235 L 184 235 Z M 185 255 L 183 256 Q 180 257 181 261 L 183 262 L 281 262 Q 284 262 283 258 L 280 255 L 185 255 Z M 183 276 Q 180 277 181 281 L 183 282 L 282 282 L 283 279 L 281 276 L 183 276 Z M 184 296 Q 180 297 181 301 L 185 303 L 279 303 L 282 302 L 283 299 L 281 296 L 184 296 Z " /><path fill="rgb(238,239,238)" stroke="rgb(238,239,238)" stroke-width="1" opacity="1" d="M 266.5 180 L 268 180.5 L 257.5 202 L 256 194.5 Q 257.5 186 263.5 182 L 266.5 180 Z " /><path fill="rgb(238,239,238)" stroke="rgb(238,239,238)" stroke-width="1" opacity="1" d="M 286.5 185 Q 291 188 291 195.5 Q 288.5 203.5 282.5 208 L 274.5 211 L 275 209.5 L 286.5 185 Z " /><path fill="rgb(238,239,238)" stroke="rgb(238,239,238)" stroke-width="1" opacity="1" d="M 305.5 222 L 310.5 228 L 305.5 222 Z " /><path fill="rgb(238,239,238)" stroke="rgb(238,239,238)" stroke-width="1" opacity="1" d="M 138.5 232 L 138 233.5 L 137.5 313 L 137 233.5 L 138.5 232 Z " /><path fill="rgb(238,239,238)" stroke="rgb(238,239,238)" stroke-width="1" opacity="1" d="M 141.5 320 L 143.5 323 L 141.5 320 Z " /><path fill="rgb(255,255,255)" stroke="rgb(255,255,255)" stroke-width="1" opacity="1" d="M 0 0 L 500 0 L 500 500 L 0 500 L 0 0 Z M 181 143 L 174 145 L 166 155 L 166 231 L 141 231 L 137 234 L 137 313 L 141 321 L 150 326 L 287 326 L 293 323 L 298 315 L 298 228 L 307 235 Q 311 236 312 233 L 311 228 L 302 220 Q 303 217 301 218 L 298 216 L 298 156 L 296 151 L 292 146 L 283 143 L 181 143 Z " /><path fill="rgb(103,152,194)" stroke="rgb(103,152,194)" stroke-width="1" opacity="1" d="M 198.5 157 L 204.5 157 L 212 162.5 Q 214.6 165.4 214 171.5 L 211 179 L 218 183.5 L 222 190.5 L 222 194.5 Q 215.5 205.5 196.5 204 Q 186.1 201.9 181 194.5 L 182 187.5 L 188.5 180 L 192 179 L 189 172.5 L 189 166.5 L 194.5 159 L 198.5 157 Z " /><path fill="rgb(103,152,194)" stroke="rgb(103,152,194)" stroke-width="1" opacity="1" d="M 268.5 175 Q 286.5 173.5 292 184.5 Q 296.8 189.7 295 201.5 L 291 211.5 L 293.5 213 L 294.5 212 L 311 228.5 L 312 230.5 L 309.5 234 L 305.5 234 L 295 223.5 L 287.5 213 L 277.5 218 L 269.5 218 L 265.5 217 L 257 210.5 Q 251.3 204.7 252 192.5 Q 254.4 182.9 261.5 178 L 268.5 175 Z M 269 179 L 263 182 L 256 193 L 256 201 L 259 207 Q 263 212 271 214 Q 279 215 283 212 Q 289 208 291 201 Q 293 190 288 186 L 279 179 L 269 179 Z " /><path fill="rgb(218,218,222)" stroke="rgb(218,218,222)" stroke-width="1" opacity="1" d="M 196.5 157 L 198 157.5 L 195.5 159 L 196.5 157 Z " /><path fill="rgb(218,218,222)" stroke="rgb(218,218,222)" stroke-width="1" opacity="1" d="M 193.5 159 L 190.5 163 L 193.5 159 Z " /><path fill="rgb(218,218,222)" stroke="rgb(218,218,222)" stroke-width="1" opacity="1" d="M 209.5 159 L 211.5 162 L 209.5 159 Z " /><path fill="rgb(218,218,222)" stroke="rgb(218,218,222)" stroke-width="1" opacity="1" d="M 234.5 166 L 251.5 166 L 254 167 L 255 169.5 L 254 172 L 251.5 173 L 234.5 173 Q 231.5 172.5 232 168.5 L 234.5 166 Z " /><path fill="rgb(218,218,222)" stroke="rgb(218,218,222)" stroke-width="1" opacity="1" d="M 188.5 168 L 189 170.5 L 188 170.5 L 188.5 168 Z " /><path fill="rgb(218,218,222)" stroke="rgb(218,218,222)" stroke-width="1" opacity="1" d="M 189.5 173 L 192 178.5 L 191 178.5 L 189.5 173 Z " /><path fill="rgb(218,218,222)" stroke="rgb(218,218,222)" stroke-width="1" opacity="1" d="M 272.5 174 L 275 174.5 L 272.5 175 L 272.5 174 Z " /><path fill="rgb(218,218,222)" stroke="rgb(218,218,222)" stroke-width="1" opacity="1" d="M 213.5 179 L 214.5 181 L 213.5 179 Z " /><path fill="rgb(218,218,222)" stroke="rgb(218,218,222)" stroke-width="1" opacity="1" d="M 268 179 Q 282.9 176.8 288 185.5 L 285 186.5 L 274 210.5 L 276.5 211 Q 283.3 208.8 287 203.5 L 290.5 196 L 291 200.5 Q 288.9 208.4 282.5 212 Q 278.5 215 270.5 214 Q 262.8 212.2 259 206.5 L 257 202.5 L 268 179 Z " /><path fill="rgb(218,218,222)" stroke="rgb(218,218,222)" stroke-width="1" opacity="1" d="M 287.5 179 L 290.5 183 L 287.5 179 Z " /><path fill="rgb(218,218,222)" stroke="rgb(218,218,222)" stroke-width="1" opacity="1" d="M 186.5 181 L 184.5 184 L 186.5 181 Z " /><path fill="rgb(218,218,222)" stroke="rgb(218,218,222)" stroke-width="1" opacity="1" d="M 262.5 182 L 261.5 184 L 262.5 182 Z " /><path fill="rgb(218,218,222)" stroke="rgb(218,218,222)" stroke-width="1" opacity="1" d="M 218.5 184 L 219.5 186 L 218.5 184 Z " /><path fill="rgb(218,218,222)" stroke="rgb(218,218,222)" stroke-width="1" opacity="1" d="M 234.5 184 L 256 184.5 L 252.5 192 L 251.5 191 L 234.5 191 L 232 188.5 Q 231.5 184.5 234.5 184 Z " /><path fill="rgb(218,218,222)" stroke="rgb(218,218,222)" stroke-width="1" opacity="1" d="M 183.5 185 L 182.5 187 L 183.5 185 Z " /><path fill="rgb(218,218,222)" stroke="rgb(218,218,222)" stroke-width="1" opacity="1" d="M 180.5 191 Q 180.5 197 185 198.5 L 180 194.5 L 180.5 191 Z " /><path fill="rgb(218,218,222)" stroke="rgb(218,218,222)" stroke-width="1" opacity="1" d="M 222.5 191 L 223 194.5 L 217 199.5 Q 222.4 197.9 222.5 191 Z " /><path fill="rgb(218,218,222)" stroke="rgb(218,218,222)" stroke-width="1" opacity="1" d="M 193.5 203 L 196 203.5 L 193.5 204 L 193.5 203 Z " /><path fill="rgb(218,218,222)" stroke="rgb(218,218,222)" stroke-width="1" opacity="1" d="M 198.5 204 L 205 204.5 L 198.5 205 L 198.5 204 Z " /><path fill="rgb(218,218,222)" stroke="rgb(218,218,222)" stroke-width="1" opacity="1" d="M 291.5 211 L 294 212.5 L 292.5 213 L 291.5 211 Z " /><path fill="rgb(218,218,222)" stroke="rgb(218,218,222)" stroke-width="1" opacity="1" d="M 260.5 213 L 265.5 217 L 277.5 218 L 281.5 216 L 283 219.5 L 281.5 221 L 182.5 221 Q 180.3 220.3 181 216.5 L 182.5 215 L 261 214.5 L 260.5 213 Z " /><path fill="rgb(218,218,222)" stroke="rgb(218,218,222)" stroke-width="1" opacity="1" d="M 287.5 213 L 295 222.5 L 289 217.5 L 287.5 213 Z " /><path fill="rgb(218,218,222)" stroke="rgb(218,218,222)" stroke-width="1" opacity="1" d="M 139.5 232 L 165.5 232 L 166 232.5 L 166 324.5 L 166.5 326 L 150.5 326 Q 143.3 324.2 140 318.5 L 138 314.5 L 138 233.5 L 139.5 232 Z " /><path fill="rgb(218,218,222)" stroke="rgb(218,218,222)" stroke-width="1" opacity="1" d="M 183.5 235 L 280.5 235 L 283 237.5 Q 283.5 241.5 280.5 242 L 183.5 242 L 181 239.5 Q 180.5 235.5 183.5 235 Z " /><path fill="rgb(218,218,222)" stroke="rgb(218,218,222)" stroke-width="1" opacity="1" d="M 184.5 255 L 279.5 255 L 283 257.5 Q 283.5 261.5 280.5 262 L 182.5 262 L 181 260.5 Q 180.3 256.8 182.5 256 L 184.5 255 Z " /><path fill="rgb(218,218,222)" stroke="rgb(218,218,222)" stroke-width="1" opacity="1" d="M 182.5 276 L 280.5 276 L 283 278.5 L 282 282 L 182.5 282 L 181 280.5 Q 180.3 276.8 182.5 276 Z " /><path fill="rgb(218,218,222)" stroke="rgb(218,218,222)" stroke-width="1" opacity="1" d="M 183.5 296 L 280.5 296 L 283 298.5 L 281.5 302 L 278.5 303 L 184.5 303 L 181 300.5 Q 180.5 296.5 183.5 296 Z " /></svg>