<?xml version="1.0" encoding="iso-8859-1"?>
<!-- Uploaded to: SVG Repo, www.svgrepo.com, Generator: SVG Repo Mixer Tools -->
<svg fill="#000000" height="800px" width="800px" version="1.1" id="Layer_1" xmlns="http://www.w3.org/2000/svg" xmlns:xlink="http://www.w3.org/1999/xlink" 
	 viewBox="0 0 512.853 512.853" xml:space="preserve">
<g transform="translate(1 1)">
	<g>
		<g>
			<path d="M479,400.493l31.573-46.933c1.707-2.56,1.707-5.973,0-8.533c-1.707-2.56-4.267-4.267-7.68-4.267h-51.2v-34.133
				c0-5.12-3.413-8.533-8.533-8.533h-8.533V76.227c0-5.12-3.413-8.533-8.533-8.533h-25.6V25.027c0-5.12-3.413-8.533-8.533-8.533
				H118.893c-5.12,0-8.533,3.413-8.533,8.533v42.667h-25.6c-5.12,0-8.533,3.413-8.533,8.533v221.867h-8.533
				c-5.12,0-8.533,3.413-8.533,8.533v34.133H7.96c-3.413,0-5.973,1.707-6.827,5.12c-1.707,2.56-1.707,5.973,0,8.533l30.72,46.08
				L0.28,447.427c-1.707,2.56-1.707,5.973,0,8.533s4.267,4.267,7.68,4.267h76.8c5.12,0,8.533-3.413,8.533-8.533V417.56h50.214
				l106.799,75.093c1.707,0.853,3.413,1.707,5.12,1.707s3.413,0,5.12-1.707l106.799-75.093h50.214v34.133
				c0,5.12,3.413,8.533,8.533,8.533h76.8c3.413,0,5.12-2.56,6.827-5.12c1.707-2.56,1.707-5.973,0-8.533L479,400.493z M93.293,84.76
				h25.6c5.12,0,8.533-3.413,8.533-8.533V33.56h256v42.667c0,5.12,3.413,8.533,8.533,8.533h25.6v213.333h-17.067V110.36
				c0-5.12-3.413-8.533-8.533-8.533h-25.6V59.16c0-5.12-3.413-8.533-8.533-8.533h-204.8c-5.12,0-8.533,3.413-8.533,8.533v42.667
				h-25.6c-5.12,0-8.533,3.413-8.533,8.533v187.733H93.293V84.76z M212.76,187.16c0-23.893,18.773-42.667,42.667-42.667
				c23.893,0,42.667,18.773,42.667,42.667s-18.773,42.667-42.667,42.667C231.533,229.827,212.76,211.053,212.76,187.16z
				 M256.28,246.893c29.867,0,54.613,22.187,58.88,51.2H196.547C200.813,269.08,226.413,246.893,256.28,246.893z M331.753,298.093
				c-2.951-27.13-19.812-49.845-43.392-60.948c16.205-10.62,26.799-28.931,26.799-49.985c0-33.28-26.453-59.733-59.733-59.733
				c-33.28,0-59.733,26.453-59.733,59.733c0,21.054,10.595,39.365,26.799,49.985c-23.58,11.103-40.441,33.818-43.392,60.948h-51.674
				v-179.2h25.6c5.12,0,8.533-3.413,8.533-8.533V67.693h187.733v42.667c0,5.12,3.413,8.533,8.533,8.533h25.6v179.2H331.753z
				 M76.227,315.16h8.533h34.133h68.267h136.533h68.267h34.133h8.533v34.133v51.2h-8.533h-61.44h-61.44h-96.427H146.2H84.76h-8.533
				v-51.2V315.16z M278.467,417.56l-23.04,17.067l-23.04-17.067H278.467z M76.227,443.16H24.173l25.6-38.4
				c1.707-2.56,1.707-6.827,0-9.387l-25.6-37.547H59.16v51.2c0,5.12,3.413,8.533,8.533,8.533h8.533V443.16z M255.427,475.587
				l-81.92-58.027h30.422l46.378,34.987c1.707,0.853,3.413,1.707,5.12,1.707s3.413,0,4.267-1.707l46.378-34.987h31.276
				L255.427,475.587z M434.627,443.16v-24.747h8.533c5.12,0,8.533-3.413,8.533-8.533v-0.853V358.68h34.987l-25.6,37.547
				c-1.707,2.56-1.707,6.827,0,9.387l25.6,37.547H434.627z"/>
			<path d="M153.027,349.293h34.133c5.12,0,8.533-3.413,8.533-8.533s-3.413-8.533-8.533-8.533h-34.133
				c-5.12,0-8.533,3.413-8.533,8.533S147.907,349.293,153.027,349.293z"/>
			<path d="M221.293,349.293h51.2c5.12,0,8.533-3.413,8.533-8.533s-3.413-8.533-8.533-8.533h-51.2c-5.12,0-8.533,3.413-8.533,8.533
				S216.173,349.293,221.293,349.293z"/>
			<path d="M153.027,383.427h76.8c5.12,0,8.533-3.413,8.533-8.533s-3.413-8.533-8.533-8.533h-76.8c-5.12,0-8.533,3.413-8.533,8.533
				S147.907,383.427,153.027,383.427z"/>
			<path d="M357.827,366.36H340.76c-5.12,0-8.533,3.413-8.533,8.533s3.413,8.533,8.533,8.533h17.067c5.12,0,8.533-3.413,8.533-8.533
				S362.947,366.36,357.827,366.36z"/>
			<path d="M255.427,374.893c0,5.12,3.413,8.533,8.533,8.533h42.667c5.12,0,8.533-3.413,8.533-8.533s-3.413-8.533-8.533-8.533
				H263.96C258.84,366.36,255.427,369.773,255.427,374.893z"/>
			<path d="M315.16,349.293h42.667c5.12,0,8.533-3.413,8.533-8.533s-3.413-8.533-8.533-8.533H315.16
				c-5.12,0-8.533,3.413-8.533,8.533S310.04,349.293,315.16,349.293z"/>
		</g>
	</g>
</g>
</svg>